<mxfile host="app.diagrams.net" agent="Mozilla/5.0 (Windows NT 10.0; Win64; x64) AppleWebKit/537.36 (KHTML, like Gecko) Chrome/127.0.0.0 Safari/537.36 OPR/113.0.0.0 (Edition std-1)" version="24.7.12">
  <diagram name="PÃ¡gina-1" id="yArK5gwpuhD1j4Pq42BH">
    <mxGraphModel dx="1073" dy="451" grid="1" gridSize="10" guides="1" tooltips="1" connect="1" arrows="1" fold="1" page="1" pageScale="1" pageWidth="827" pageHeight="1169" math="0" shadow="0">
      <root>
        <mxCell id="0" />
        <mxCell id="1" parent="0" />
        <mxCell id="vahcR2nEQ7SxHLoM741k-5" value="empleado" style="swimlane;fontStyle=1;align=center;verticalAlign=top;childLayout=stackLayout;horizontal=1;startSize=26;horizontalStack=0;resizeParent=1;resizeParentMax=0;resizeLast=0;collapsible=1;marginBottom=0;whiteSpace=wrap;html=1;" vertex="1" parent="1">
          <mxGeometry x="270" y="160" width="220" height="350" as="geometry" />
        </mxCell>
        <mxCell id="vahcR2nEQ7SxHLoM741k-6" value="- id: int&amp;nbsp;&lt;div&gt;&amp;nbsp;- salario: double&amp;nbsp;&lt;/div&gt;&lt;div&gt;&amp;nbsp;- maxHoras: int&amp;nbsp;&lt;div&gt;&amp;nbsp;- altaSeguridadSocial: boolean&amp;nbsp;&lt;div&gt;&lt;br&gt;&lt;/div&gt;&lt;div&gt;&amp;nbsp;- altaSeguro: boolean      &lt;/div&gt;&lt;/div&gt;&lt;/div&gt;" style="text;strokeColor=none;fillColor=none;align=left;verticalAlign=top;spacingLeft=4;spacingRight=4;overflow=hidden;rotatable=0;points=[[0,0.5],[1,0.5]];portConstraint=eastwest;whiteSpace=wrap;html=1;" vertex="1" parent="vahcR2nEQ7SxHLoM741k-5">
          <mxGeometry y="26" width="220" height="114" as="geometry" />
        </mxCell>
        <mxCell id="vahcR2nEQ7SxHLoM741k-7" value="" style="line;strokeWidth=1;fillColor=none;align=left;verticalAlign=middle;spacingTop=-1;spacingLeft=3;spacingRight=3;rotatable=0;labelPosition=right;points=[];portConstraint=eastwest;strokeColor=inherit;" vertex="1" parent="vahcR2nEQ7SxHLoM741k-5">
          <mxGeometry y="140" width="220" height="8" as="geometry" />
        </mxCell>
        <mxCell id="vahcR2nEQ7SxHLoM741k-8" value="+ Empleado(id: int, salario: double, maxHoras: int)&amp;nbsp;&lt;br&gt;+ ingresarDatos(): void&amp;nbsp;&lt;br&gt;&amp;nbsp;+ visualizarDatos(): void&amp;nbsp;&lt;br&gt;&amp;nbsp;+ darAltaSeguridadSocial(): void&amp;nbsp;&lt;br&gt;&amp;nbsp;+ darBajaSeguridadSocial(): void&amp;nbsp;&lt;br&gt;&amp;nbsp;+ darAltaSeguro(): void&amp;nbsp;&lt;br&gt;&amp;nbsp;+ darBajaSeguro(): void" style="text;strokeColor=none;fillColor=none;align=left;verticalAlign=top;spacingLeft=4;spacingRight=4;overflow=hidden;rotatable=0;points=[[0,0.5],[1,0.5]];portConstraint=eastwest;whiteSpace=wrap;html=1;" vertex="1" parent="vahcR2nEQ7SxHLoM741k-5">
          <mxGeometry y="148" width="220" height="202" as="geometry" />
        </mxCell>
      </root>
    </mxGraphModel>
  </diagram>
</mxfile>
